<svg width="1024" height="1024" viewBox="0 0 1024 1024" fill="none" xmlns="http://www.w3.org/2000/svg">
  <defs>
    <linearGradient id="bg" x1="128" y1="94" x2="896" y2="930" gradientUnits="userSpaceOnUse">
      <stop stop-color="#0F766E"/>
      <stop offset="0.48" stop-color="#14B8A6"/>
      <stop offset="1" stop-color="#99F6E4"/>
    </linearGradient>
    <linearGradient id="mark" x1="272" y1="246" x2="748" y2="782" gradientUnits="userSpaceOnUse">
      <stop stop-color="#FFFFFF"/>
      <stop offset="1" stop-color="#ECFEFF"/>
    </linearGradient>
    <linearGradient id="orange" x1="612" y1="272" x2="780" y2="468" gradientUnits="userSpaceOnUse">
      <stop stop-color="#FDBA74"/>
      <stop offset="1" stop-color="#F97316"/>
    </linearGradient>
    <filter id="softShadow" x="128" y="120" width="768" height="800" filterUnits="userSpaceOnUse" color-interpolation-filters="sRGB">
      <feFlood flood-opacity="0" result="BackgroundImageFix"/>
      <feColorMatrix in="SourceAlpha" type="matrix" values="0 0 0 0 0 0 0 0 0 0 0 0 0 0 0 0 0 0 127 0" result="hardAlpha"/>
      <feOffset dy="34"/>
      <feGaussianBlur stdDeviation="42"/>
      <feComposite in2="hardAlpha" operator="out"/>
      <feColorMatrix type="matrix" values="0 0 0 0 0.02 0 0 0 0 0.12 0 0 0 0 0.11 0 0 0 0.30 0"/>
      <feBlend mode="normal" in2="BackgroundImageFix" result="effect1_dropShadow"/>
      <feBlend mode="normal" in="SourceGraphic" in2="effect1_dropShadow" result="shape"/>
    </filter>
  </defs>

  <rect width="1024" height="1024" rx="240" fill="url(#bg)"/>

  <circle cx="170" cy="166" r="116" fill="#CCFBF1" fill-opacity="0.23"/>
  <circle cx="850" cy="846" r="190" fill="#0F766E" fill-opacity="0.18"/>
  <path d="M140 714C254 650 345 660 448 736C560 819 682 824 884 704" stroke="#CCFBF1" stroke-opacity="0.22" stroke-width="34" stroke-linecap="round"/>

  <g filter="url(#softShadow)">
    <path d="M286 220H738C774.451 220 804 249.549 804 286V738C804 774.451 774.451 804 738 804H286C249.549 804 220 774.451 220 738V286C220 249.549 249.549 220 286 220Z" fill="#0F2F2C" fill-opacity="0.92"/>
    <path d="M286 220H738C774.451 220 804 249.549 804 286V738C804 774.451 774.451 804 738 804H286C249.549 804 220 774.451 220 738V286C220 249.549 249.549 220 286 220Z" stroke="#CCFBF1" stroke-opacity="0.18" stroke-width="10"/>

    <!-- typing rhythm strokes -->
    <path d="M342 366H534" stroke="url(#mark)" stroke-width="46" stroke-linecap="round"/>
    <path d="M342 512H478" stroke="url(#mark)" stroke-width="46" stroke-linecap="round" opacity="0.84"/>
    <path d="M342 658H584" stroke="url(#mark)" stroke-width="46" stroke-linecap="round" opacity="0.72"/>

    <!-- type cursor / T monogram hybrid -->
    <path d="M622 342V682" stroke="url(#mark)" stroke-width="54" stroke-linecap="round"/>
    <path d="M556 342H690" stroke="url(#mark)" stroke-width="54" stroke-linecap="round"/>

    <!-- orange live cursor accent -->
    <rect x="710" y="314" width="56" height="186" rx="28" fill="url(#orange)"/>
    <circle cx="738" cy="590" r="28" fill="#F97316"/>
  </g>

  <path d="M684 244C728 252 770 292 780 336" stroke="#FDBA74" stroke-width="22" stroke-linecap="round" opacity="0.9"/>
</svg>
