<svg width="1024" height="1024" viewBox="0 0 1024 1024" fill="none" xmlns="http://www.w3.org/2000/svg">
  <defs>
    <linearGradient id="bg" x1="120" y1="92" x2="904" y2="932" gradientUnits="userSpaceOnUse">
      <stop stop-color="#0F766E"/>
      <stop offset="0.52" stop-color="#14B8A6"/>
      <stop offset="1" stop-color="#99F6E4"/>
    </linearGradient>
    <linearGradient id="paper" x1="296" y1="198" x2="731" y2="810" gradientUnits="userSpaceOnUse">
      <stop stop-color="#FFFFFF"/>
      <stop offset="1" stop-color="#ECFEFF"/>
    </linearGradient>
    <linearGradient id="accent" x1="341" y1="313" x2="719" y2="674" gradientUnits="userSpaceOnUse">
      <stop stop-color="#F97316"/>
      <stop offset="1" stop-color="#FDBA74"/>
    </linearGradient>
    <filter id="shadow" x="112" y="96" width="800" height="832" filterUnits="userSpaceOnUse" color-interpolation-filters="sRGB">
      <feFlood flood-opacity="0" result="BackgroundImageFix"/>
      <feColorMatrix in="SourceAlpha" type="matrix" values="0 0 0 0 0 0 0 0 0 0 0 0 0 0 0 0 0 0 127 0" result="hardAlpha"/>
      <feOffset dy="34"/>
      <feGaussianBlur stdDeviation="36"/>
      <feComposite in2="hardAlpha" operator="out"/>
      <feColorMatrix type="matrix" values="0 0 0 0 0.06 0 0 0 0 0.18 0 0 0 0 0.16 0 0 0 0.28 0"/>
      <feBlend mode="normal" in2="BackgroundImageFix" result="effect1_dropShadow"/>
      <feBlend mode="normal" in="SourceGraphic" in2="effect1_dropShadow" result="shape"/>
    </filter>
  </defs>

  <rect width="1024" height="1024" rx="228" fill="url(#bg)"/>
  <circle cx="205" cy="183" r="116" fill="#CCFBF1" fill-opacity="0.25"/>
  <circle cx="829" cy="845" r="158" fill="#0F766E" fill-opacity="0.16"/>

  <g filter="url(#shadow)">
    <path d="M280 180H676L792 296V792C792 837.287 755.287 874 710 874H280C234.713 874 198 837.287 198 792V262C198 216.713 234.713 180 280 180Z" fill="url(#paper)"/>
    <path d="M676 180V274C676 286.15 685.85 296 698 296H792L676 180Z" fill="#CCFBF1"/>
    <path d="M280 180H676L792 296V792C792 837.287 755.287 874 710 874H280C234.713 874 198 837.287 198 792V262C198 216.713 234.713 180 280 180Z" stroke="#0F766E" stroke-opacity="0.16" stroke-width="10"/>
  </g>

  <path d="M320 346H704" stroke="#0F766E" stroke-width="38" stroke-linecap="round"/>
  <path d="M512 352V706" stroke="#0F766E" stroke-width="42" stroke-linecap="round"/>
  <path d="M390 706H634" stroke="#0F766E" stroke-width="42" stroke-linecap="round"/>

  <path d="M309 505C372 445 439 445 512 505C585 565 652 565 715 505" stroke="url(#accent)" stroke-width="34" stroke-linecap="round"/>
  <path d="M309 603C372 543 439 543 512 603C585 663 652 663 715 603" stroke="#14B8A6" stroke-width="26" stroke-linecap="round" opacity="0.78"/>

  <rect x="704" y="682" width="40" height="116" rx="20" fill="#F97316"/>
  <circle cx="724" cy="827" r="20" fill="#F97316"/>
</svg>
